<?xml version="1.0" encoding="iso-8859-1"?>
<!-- Generator: Adobe Illustrator 19.0.0, SVG Export Plug-In . SVG Version: 6.00 Build 0)  -->
<svg version="1.1" id="Capa_1" xmlns="http://www.w3.org/2000/svg" xmlns:xlink="http://www.w3.org/1999/xlink" x="0px" y="0px"
	 viewBox="0 0 464 464" style="enable-background:new 0 0 464 464;" xml:space="preserve">
<path style="fill:#6B968B;" d="M40,68h384c13.255,0,24,10.745,24,24v320l0,0H16l0,0V92C16,78.745,26.745,68,40,68z"/>
<rect x="56" y="108" style="fill:#C4DEED;" width="352" height="232"/>
<line style="fill:none;stroke:#000000;stroke-width:2;stroke-linecap:round;stroke-linejoin:round;" x1="232" y1="140" x2="232" y2="220"/>
<polygon style="fill:#F9CD74;" points="232,28 120,84 120,228 232,284 344,228 344,84 "/>
<polygon style="fill:#F9B659;" points="344,84 232,140 120,84 232,28 "/>
<polygon style="fill:#EB9850;" points="232,284 232,140 344,84 344,228 "/>
<path style="fill:#608778;" d="M440,436H24c-13.255,0-24-10.745-24-24l0,0v-24h160l16,16h112l16-16h160v24
	C464,425.255,453.255,436,440,436L440,436z"/>
<path style="fill:#C4DEED;" d="M240,380h-16c-4.418,0-8-3.582-8-8s3.582-8,8-8h16c4.418,0,8,3.582,8,8S244.418,380,240,380z"/>
<g>
</g>
<g>
</g>
<g>
</g>
<g>
</g>
<g>
</g>
<g>
</g>
<g>
</g>
<g>
</g>
<g>
</g>
<g>
</g>
<g>
</g>
<g>
</g>
<g>
</g>
<g>
</g>
<g>
</g>
</svg>
