<?xml version="1.0" encoding="iso-8859-1"?>
<!-- Generator: Adobe Illustrator 19.0.0, SVG Export Plug-In . SVG Version: 6.00 Build 0)  -->
<svg version="1.1" id="Capa_1" xmlns="http://www.w3.org/2000/svg" xmlns:xlink="http://www.w3.org/1999/xlink" x="0px" y="0px"
	 viewBox="0 0 464 464" style="enable-background:new 0 0 464 464;" xml:space="preserve">
<rect x="80" y="32" style="fill:#6B968B;" width="304" height="384"/>
<g>
	<rect x="112" y="64" style="fill:#C4DEED;" width="104" height="120"/>
	<rect x="248" y="64" style="fill:#C4DEED;" width="104" height="120"/>
</g>
<g>
	<rect x="16" y="400" style="fill:#F9CD74;" width="176" height="64"/>
	<rect x="168" y="312" style="fill:#F9CD74;" width="200" height="152"/>
</g>
<g>
	<rect y="368" style="fill:#EB9850;" width="208" height="32"/>
	<rect x="152" y="280" style="fill:#EB9850;" width="232" height="32"/>
</g>
<g>
	<path style="fill:#F9B659;" d="M61.208,464H192v-64h-52.8C121.193,429.543,93.698,452.105,61.208,464z"/>
	<path style="fill:#F9B659;" d="M176,464h192V312h-77.6C270.133,373.928,229.899,427.385,176,464z"/>
</g>
<rect x="336" y="392" style="fill:#F9CD74;" width="112" height="72"/>
<rect x="320" y="360" style="fill:#EB9850;" width="144" height="32"/>
<path style="fill:#F9B659;" d="M360,464h88v-72h-21.248C413.417,422.945,389.849,448.365,360,464z"/>
<path style="fill:#F9CD74;" d="M80,0h304c8.837,0,16,7.163,16,16l0,0c0,8.837-7.163,16-16,16H80c-8.837,0-16-7.163-16-16l0,0
	C64,7.163,71.163,0,80,0z"/>
<path style="fill:#C4DEED;" d="M128,256c-13.255,0-24-10.745-24-24c0-13.255,10.745-24,24-24c4.418,0,8,3.582,8,8s-3.582,8-8,8
	s-8,3.582-8,8s3.582,8,8,8s8-3.582,8-8s3.582-8,8-8s8,3.582,8,8C152,245.255,141.255,256,128,256z"/>
<g>
</g>
<g>
</g>
<g>
</g>
<g>
</g>
<g>
</g>
<g>
</g>
<g>
</g>
<g>
</g>
<g>
</g>
<g>
</g>
<g>
</g>
<g>
</g>
<g>
</g>
<g>
</g>
<g>
</g>
</svg>
