<?xml version="1.0" encoding="iso-8859-1"?>
<!-- Generator: Adobe Illustrator 19.0.0, SVG Export Plug-In . SVG Version: 6.00 Build 0)  -->
<svg version="1.1" id="Capa_1" xmlns="http://www.w3.org/2000/svg" xmlns:xlink="http://www.w3.org/1999/xlink" x="0px" y="0px"
	 viewBox="0 0 464 464" style="enable-background:new 0 0 464 464;" xml:space="preserve">
<circle style="fill:#F2C09A;" cx="232" cy="24" r="24"/>
<path style="fill:#6B968B;" d="M232,48L232,48c22.091,0,40,17.909,40,40v40l0,0h-80l0,0V88C192,65.909,209.909,48,232,48z"/>
<circle style="fill:#F2C09A;" cx="232" cy="192" r="24"/>
<path style="fill:#6B968B;" d="M232,216L232,216c22.091,0,40,17.909,40,40v40l0,0h-80l0,0v-40C192,233.909,209.909,216,232,216z"/>
<circle style="fill:#F2C09A;" cx="424" cy="192" r="24"/>
<path style="fill:#6B968B;" d="M424,216L424,216c22.091,0,40,17.909,40,40v40l0,0h-80l0,0v-40C384,233.909,401.909,216,424,216z"/>
<circle style="fill:#F2C09A;" cx="40" cy="192" r="24"/>
<path style="fill:#6B968B;" d="M40,216L40,216c22.091,0,40,17.909,40,40v40l0,0H0l0,0v-40C0,233.909,17.909,216,40,216z"/>
<circle style="fill:#F2C09A;" cx="232" cy="360" r="24"/>
<path style="fill:#6B968B;" d="M232,384L232,384c22.091,0,40,17.909,40,40v40l0,0h-80l0,0v-40C192,401.909,209.909,384,232,384z"/>
<g>
	<path style="fill:#F9B659;" d="M150.456,413.88c-1.176,0.002-2.337-0.258-3.4-0.76c-2.539-1.195-5.045-2.437-7.52-3.728
		c-3.919-2.05-5.434-6.889-3.384-10.808c2.05-3.919,6.889-5.434,10.808-3.384c2.272,1.189,4.573,2.333,6.904,3.432
		c3.999,1.88,5.716,6.645,3.837,10.643c-1.32,2.807-4.143,4.599-7.245,4.597L150.456,413.88z"/>
	<path style="fill:#F9B659;" d="M328.136,406.248c-4.418-0.008-7.994-3.596-7.986-8.014c0.005-2.847,1.523-5.477,3.986-6.906
		c2.213-1.285,4.405-2.619,6.576-4c3.565-2.61,8.571-1.835,11.181,1.73s1.835,8.571-1.73,11.181
		c-0.282,0.206-0.576,0.394-0.882,0.561c-2.352,1.493-4.731,2.941-7.136,4.344C330.929,405.859,329.546,406.24,328.136,406.248z"/>
	<path style="fill:#F9B659;" d="M109.808,388.112c-1.854-0.001-3.649-0.646-5.08-1.824c-2.168-1.784-4.28-3.608-6.4-5.48
		c-3.341-2.891-3.706-7.943-0.815-11.284c2.891-3.341,7.943-3.706,11.284-0.815c0.08,0.069,0.158,0.139,0.235,0.211
		c1.904,1.712,3.845,3.387,5.824,5.024c3.406,2.814,3.887,7.856,1.073,11.263c-1.518,1.838-3.777,2.903-6.161,2.905L109.808,388.112
		z"/>
	<path style="fill:#F9B659;" d="M366.4,377.128c-4.418-0.005-7.996-3.591-7.991-8.009c0.002-2.142,0.864-4.193,2.391-5.695
		c1.832-1.808,3.64-3.648,5.4-5.528c3.001-3.243,8.063-3.439,11.305-0.438c3.243,3.001,3.439,8.063,0.438,11.305
		c-0.029,0.031-0.058,0.062-0.087,0.092c-1.904,2.027-3.851,4.019-5.84,5.976C370.518,376.305,368.501,377.13,366.4,377.128z"/>
	<path style="fill:#F9B659;" d="M76.8,353.096c-2.555,0.002-4.957-1.217-6.464-3.28c-1.643-2.251-3.243-4.533-4.8-6.848
		c-2.459-3.672-1.476-8.641,2.196-11.1c3.672-2.459,8.641-1.476,11.1,2.196c1.435,2.133,2.907,4.237,4.416,6.312
		c2.607,3.567,1.828,8.572-1.739,11.179c-1.369,1.001-3.021,1.54-4.717,1.541L76.8,353.096z"/>
	<path style="fill:#F9B659;" d="M396.28,339.424c-4.418-0.004-7.996-3.59-7.992-8.008c0.001-1.455,0.4-2.882,1.152-4.128
		c1.328-2.2,2.624-4.44,3.864-6.696c2.134-3.87,7.002-5.278,10.872-3.144c3.87,2.134,5.278,7.002,3.144,10.872
		c-1.349,2.443-2.741,4.843-4.176,7.2C401.702,337.939,399.096,339.421,396.28,339.424z"/>
	<path style="fill:#F9B659;" d="M76.384,127.504c-4.418-0.001-7.999-3.584-7.998-8.002c0.001-1.683,0.532-3.322,1.518-4.686
		c1.643-2.267,3.328-4.496,5.056-6.688c2.821-3.401,7.864-3.871,11.265-1.05c3.282,2.723,3.852,7.541,1.295,10.954
		c-1.6,2.027-3.149,4.077-4.648,6.152C81.368,126.269,78.954,127.504,76.384,127.504z"/>
	<path style="fill:#F9B659;" d="M376.912,114.04c-2.312,0.002-4.511-0.995-6.032-2.736c-1.685-1.941-3.411-3.845-5.176-5.712
		c-2.984-3.259-2.761-8.319,0.498-11.303c3.178-2.91,8.091-2.78,11.11,0.295c1.92,2.032,3.792,4.088,5.6,6.2
		c2.903,3.331,2.556,8.384-0.775,11.287c-1.457,1.27-3.324,1.969-5.257,1.969L376.912,114.04z"/>
	<path style="fill:#F9B659;" d="M109.256,92.352c-4.418-0.002-7.998-3.585-7.996-8.004c0.001-2.372,1.055-4.621,2.876-6.14
		c2.133-1.781,4.312-3.523,6.536-5.224c3.513-2.684,8.536-2.013,11.22,1.5s2.013,8.536-1.5,11.22
		c-2.048,1.563-4.056,3.163-6.024,4.8C112.935,91.703,111.124,92.357,109.256,92.352z"/>
	<path style="fill:#F9B659;" d="M341.064,81.968c-1.624-0.002-3.209-0.499-4.544-1.424c-2.133-1.461-4.267-2.88-6.4-4.256
		c-3.812-2.234-5.09-7.136-2.856-10.947c2.234-3.812,7.136-5.09,10.947-2.856c0.148,0.087,0.294,0.179,0.436,0.275
		c2.368,1.488,4.701,3.029,7,4.624c3.636,2.51,4.549,7.492,2.04,11.128c-1.495,2.166-3.96,3.458-6.592,3.456H341.064z"/>
	<path style="fill:#F9B659;" d="M149.784,66.448c-4.418-0.026-7.979-3.629-7.953-8.047c0.018-3.05,1.768-5.824,4.513-7.153
		c2.512-1.184,5.051-2.323,7.616-3.416c4.034-1.803,8.765,0.005,10.568,4.038c1.803,4.034-0.005,8.765-4.038,10.568
		c-0.088,0.039-0.177,0.077-0.266,0.113c-2.368,1.008-4.709,2.075-7.024,3.2C152.126,66.232,150.96,66.47,149.784,66.448z"/>
	<path style="fill:#F9B659;" d="M298.4,59.784c-0.942-0.002-1.876-0.169-2.76-0.496c-2.4-0.888-4.856-1.728-7.32-2.52
		c-4.116-1.605-6.152-6.243-4.547-10.36c1.471-3.773,5.53-5.852,9.451-4.84c2.667,0.853,5.312,1.763,7.936,2.728
		c4.153,1.507,6.298,6.096,4.791,10.249c-1.152,3.175-4.174,5.284-7.551,5.271L298.4,59.784z"/>
</g>
<g>
	<path style="fill:#C4DEED;" d="M232,104c-4.418,0-8-3.582-8-8V80c0-4.418,3.582-8,8-8s8,3.582,8,8v16
		C240,100.418,236.418,104,232,104z"/>
	<path style="fill:#C4DEED;" d="M232,272c-4.418,0-8-3.582-8-8v-16c0-4.418,3.582-8,8-8s8,3.582,8,8v16
		C240,268.418,236.418,272,232,272z"/>
	<path style="fill:#C4DEED;" d="M232,440c-4.418,0-8-3.582-8-8v-16c0-4.418,3.582-8,8-8s8,3.582,8,8v16
		C240,436.418,236.418,440,232,440z"/>
	<path style="fill:#C4DEED;" d="M40,272c-4.418,0-8-3.582-8-8v-16c0-4.418,3.582-8,8-8s8,3.582,8,8v16C48,268.418,44.418,272,40,272
		z"/>
	<path style="fill:#C4DEED;" d="M424,272c-4.418,0-8-3.582-8-8v-16c0-4.418,3.582-8,8-8s8,3.582,8,8v16
		C432,268.418,428.418,272,424,272z"/>
</g>
<g>
</g>
<g>
</g>
<g>
</g>
<g>
</g>
<g>
</g>
<g>
</g>
<g>
</g>
<g>
</g>
<g>
</g>
<g>
</g>
<g>
</g>
<g>
</g>
<g>
</g>
<g>
</g>
<g>
</g>
</svg>
